#N canvas 0 22 730 513 10;
#X obj 42 266 dac~;
#X obj 321 95 openpanel;
#X text 150 329 right ch;
#X text 33 330 left ch;
#X text 32 308 some tables for your samples:;
#X text 202 38 bang: carregar ficheiro;
#X obj 42 66 inlet;
#X obj 321 66 inlet;
#X text 42 37 bang: disparar sample;
#X obj 9 144 bng 15 250 50 0 empty empty empty 17 7 0 10 -262144 -1
-1;
#X obj 153 345 table \$0-sampleR;
#X obj 34 345 table \$0-sampleL;
#X obj 42 131 tabplay~ \$0-sampleL;
#X obj 63 159 tabplay~ \$0-sampleR;
#X obj 373 61 bng 15 250 50 0 empty empty empty 17 7 0 10 -262144 -1
-1;
#X obj 318 400 print;
#X obj 420 149 pack \$0;
#X msg 420 175 symbol \$1-sampleL;
#X obj 538 148 pack \$0;
#X msg 538 174 symbol \$1-sampleR;
#X obj 319 282 list trim;
#X msg 319 206 read -resize \$1;
#X obj 320 119 t s b b;
#X obj 566 311 openpanel;
#X obj 611 287 bng 15 250 50 0 empty empty empty 17 7 0 10 -262144
-1 -1;
#X msg 488 344 read -resize \$1 -sampleL;
#X obj 340 332 soundfiler;
#X obj 319 242 pack s s s s s;
#X connect 1 0 22 0;
#X connect 6 0 12 0;
#X connect 6 0 13 0;
#X connect 7 0 1 0;
#X connect 9 0 12 0;
#X connect 9 0 13 0;
#X connect 12 0 0 0;
#X connect 13 0 0 1;
#X connect 14 0 1 0;
#X connect 16 0 17 0;
#X connect 17 0 27 3;
#X connect 18 0 19 0;
#X connect 19 0 27 4;
#X connect 20 0 15 0;
#X connect 20 0 26 0;
#X connect 21 0 27 0;
#X connect 22 0 21 0;
#X connect 22 1 16 0;
#X connect 22 2 18 0;
#X connect 23 0 25 0;
#X connect 24 0 23 0;
#X connect 25 0 15 0;
#X connect 27 0 20 0;
